<!-- Generator: Adobe Illustrator 21.0.0, SVG Export Plug-In  -->
<svg version="1.1"
	 xmlns="http://www.w3.org/2000/svg" xmlns:xlink="http://www.w3.org/1999/xlink" xmlns:a="http://ns.adobe.com/AdobeSVGViewerExtensions/3.0/"
	 x="0px" y="0px" width="58.091px" height="58.091px" viewBox="0 0 58.091 58.091"
	 style="enable-background:new 0 0 58.091 58.091;" xml:space="preserve">
<style type="text/css">
	.st0{fill:#F3F4F4;}
	.st1{fill:url(#SVGID_1_);}
	.st2{opacity:0.1;fill:#FFFFFF;}
	.st3{fill:#FFFFFF;}
	.st4{fill:url(#SVGID_2_);}
</style>
<defs>
</defs>
<g>
	<circle class="st0" cx="29.046" cy="29.045" r="29.046"/>
	<radialGradient id="SVGID_1_" cx="45.0054" cy="11.1706" r="41.6082" gradientUnits="userSpaceOnUse">
		<stop  offset="0" style="stop-color:#5384C0"/>
		<stop  offset="0.6862" style="stop-color:#1C5787"/>
	</radialGradient>
	<path class="st1" d="M55.858,29.045c0,14.807-12.005,26.811-26.811,26.811c-14.807,0-26.812-12.004-26.812-26.811
		c0-3.925,0.843-7.654,2.359-11.011C8.794,8.72,18.165,2.233,29.047,2.233c10.88,0,20.252,6.487,24.452,15.801
		C55.014,21.392,55.858,25.12,55.858,29.045z"/>
	<path class="st2" d="M53.498,18.034c-4.2,9.314-13.571,15.799-24.452,15.799c-10.882,0-20.253-6.486-24.453-15.799
		C8.794,8.72,18.165,2.233,29.047,2.233C39.927,2.233,49.298,8.72,53.498,18.034z"/>
	<path class="st3" d="M30.898,21.065c0-2.049,1.743-1.743,1.743-1.743h5.49v-6.1h-8.236c-6.231,0-6.392,6.84-6.392,6.84v4.663v0.018
		l-3.543,0.026v5.577h3.543v17.126h7.394V30.345h6.275l0.958-5.707l-7.234,0.051v-0.051C30.898,24.638,30.898,23.112,30.898,21.065z
		"/>
</g>
</svg>