<!-- Generator: Adobe Illustrator 21.0.0, SVG Export Plug-In  -->
<svg version="1.1"
	 xmlns="http://www.w3.org/2000/svg" xmlns:xlink="http://www.w3.org/1999/xlink" xmlns:a="http://ns.adobe.com/AdobeSVGViewerExtensions/3.0/"
	 x="0px" y="0px" width="191.803px" height="191.805px" viewBox="0 0 191.803 191.805"
	 style="enable-background:new 0 0 191.803 191.805;" xml:space="preserve">
<style type="text/css">
	.st0{fill:#E6E6E6;}
	.st1{fill:url(#SVGID_1_);}
	.st2{opacity:0.1;fill:#FFFFFF;}
	.st3{fill:#FFFFFF;}
	.st4{fill:url(#SVGID_2_);}
</style>
<defs>
</defs>
<g>
	<circle class="st0" cx="95.902" cy="95.902" r="95.902"/>
	<radialGradient id="SVGID_1_" cx="148.5949" cy="36.8863" r="137.379" gradientUnits="userSpaceOnUse">
		<stop  offset="0" style="stop-color:#FF0000"/>
		<stop  offset="0.8421" style="stop-color:#8F0707"/>
	</radialGradient>
	<path class="st1" d="M184.426,95.902c0,48.889-39.636,88.525-88.524,88.525c-48.889,0-88.525-39.637-88.525-88.525
		c0-12.963,2.783-25.271,7.789-36.357C29.034,28.793,59.976,7.378,95.902,7.378c35.926,0,66.868,21.415,80.736,52.167
		C181.644,70.631,184.426,82.939,184.426,95.902z"/>
	<path class="st2" d="M176.638,59.545c-13.869,30.75-44.811,52.166-80.736,52.166c-35.926,0-66.868-21.416-80.736-52.166
		C29.034,28.793,59.976,7.378,95.902,7.378C131.828,7.378,162.77,28.793,176.638,59.545z"/>
	<path class="st3" d="M128.657,63.574h-65.51c-7.485,0-13.554,6.072-13.554,13.564v37.529c0,7.49,6.069,13.565,13.554,13.565h65.51
		c7.486,0,13.554-6.074,13.554-13.565V77.139C142.21,69.646,136.143,63.574,128.657,63.574z M86.29,108.066V81.854l25.121,13.105
		L86.29,108.066z"/>
</g>
</svg>