<!-- Generator: Adobe Illustrator 21.0.0, SVG Export Plug-In  -->
<svg version="1.1"
	 xmlns="http://www.w3.org/2000/svg" xmlns:xlink="http://www.w3.org/1999/xlink" xmlns:a="http://ns.adobe.com/AdobeSVGViewerExtensions/3.0/"
	 x="0px" y="0px" width="58.091px" height="58.091px" viewBox="0 0 58.091 58.091"
	 style="enable-background:new 0 0 58.091 58.091;" xml:space="preserve">
<style type="text/css">
	.st0{fill:#F3F4F4;}
	.st1{fill:url(#SVGID_1_);}
	.st2{opacity:0.1;fill:#FFFFFF;}
	.st3{fill:#FFFFFF;}
	.st4{fill:url(#SVGID_2_);}
</style>
<defs>
</defs>
<g>
	<circle class="st0" cx="29.046" cy="29.045" r="29.046"/>
	<radialGradient id="SVGID_1_" cx="45.005" cy="11.1706" r="41.6082" gradientUnits="userSpaceOnUse">
		<stop  offset="0.073" style="stop-color:#8FC0C1"/>
		<stop  offset="0.275" style="stop-color:#8ABDC2"/>
		<stop  offset="0.5619" style="stop-color:#7BAFC2"/>
		<stop  offset="0.8981" style="stop-color:#5F98BF"/>
		<stop  offset="0.9282" style="stop-color:#5C96BF"/>
	</radialGradient>
	<path class="st1" d="M55.857,29.045c0,14.807-12.004,26.811-26.811,26.811c-14.808,0-26.812-12.004-26.812-26.811
		c0-3.925,0.843-7.654,2.359-11.011C8.793,8.72,18.165,2.233,29.046,2.233c10.88,0,20.252,6.487,24.452,15.801
		C55.014,21.392,55.857,25.12,55.857,29.045z"/>
	<path class="st2" d="M53.498,18.034c-4.2,9.314-13.571,15.799-24.452,15.799c-10.882,0-20.253-6.486-24.453-15.799
		C8.793,8.72,18.165,2.233,29.046,2.233C39.926,2.233,49.298,8.72,53.498,18.034z"/>
	<path class="st3" d="M40.107,22.396c0,0,2.181-1.765,2.354-3.22c0,0-1.489,1.074-3.705,1.42c0,0-2.041-2.527-5.849-1.627
		c-3.808,0.901-4.605,5.158-4.155,6.855c0,0-6.612,0.104-12.013-6.024c0,0-2.631,4.397,1.904,7.79c0,0-2.176-0.138-2.663-0.692
		c0,0-0.21,4.603,4.74,5.746c0,0-1.176,0.416-2.7,0.243c0,0,1.281,3.808,5.47,3.912c0,0-3.808,3.15-8.724,2.458
		c0,0,5.18,3.816,12.254,2.307c0.337-0.072,0.678-0.155,1.023-0.253c4.482-1.362,8.36-4.27,10.508-8.485
		c0.143-0.273,0.281-0.556,0.413-0.85c0.933-2.055,1.601-4.591,1.455-7.536c0,0,2.215-1.558,2.908-2.942
		C43.326,21.497,41.906,22.154,40.107,22.396z"/>
</g>
</svg>