<!-- Generator: Adobe Illustrator 21.0.0, SVG Export Plug-In  -->
<svg version="1.1"
	 xmlns="http://www.w3.org/2000/svg" xmlns:xlink="http://www.w3.org/1999/xlink" xmlns:a="http://ns.adobe.com/AdobeSVGViewerExtensions/3.0/"
	 x="0px" y="0px" width="58.091px" height="58.091px" viewBox="0 0 58.091 58.091"
	 style="enable-background:new 0 0 58.091 58.091;" xml:space="preserve">
<style type="text/css">
	.st0{fill:#F3F4F4;}
	.st1{fill:url(#SVGID_1_);}
	.st2{opacity:0.1;fill:#FFFFFF;}
	.st3{fill:#FFFFFF;}
	.st4{fill:url(#SVGID_2_);}
</style>
<defs>
</defs>
<g>
	<circle class="st0" cx="29.045" cy="29.045" r="29.046"/>
	<radialGradient id="SVGID_1_" cx="45.0045" cy="11.1706" r="41.6082" gradientUnits="userSpaceOnUse">
		<stop  offset="0" style="stop-color:#494791"/>
		<stop  offset="0.0907" style="stop-color:#4D4791"/>
		<stop  offset="0.1935" style="stop-color:#584892"/>
		<stop  offset="0.3018" style="stop-color:#664992"/>
		<stop  offset="0.3618" style="stop-color:#704A92"/>
		<stop  offset="0.4102" style="stop-color:#744B92"/>
		<stop  offset="0.4789" style="stop-color:#7F4B92"/>
		<stop  offset="0.5598" style="stop-color:#914C92"/>
		<stop  offset="0.6493" style="stop-color:#A84C93"/>
		<stop  offset="0.6599" style="stop-color:#AB4C92"/>
		<stop  offset="0.9786" style="stop-color:#E1A827"/>
	</radialGradient>
	<path class="st1" d="M55.857,29.045c0,14.807-12.005,26.811-26.812,26.811c-14.807,0-26.812-12.004-26.812-26.811
		c0-3.925,0.842-7.654,2.359-11.011C8.793,8.72,18.164,2.233,29.045,2.233c10.881,0,20.252,6.487,24.453,15.801
		C55.013,21.392,55.857,25.12,55.857,29.045z"/>
	<path class="st2" d="M53.498,18.034c-4.201,9.314-13.571,15.799-24.453,15.799c-10.882,0-20.252-6.486-24.453-15.799
		C8.793,8.72,18.164,2.233,29.045,2.233C39.926,2.233,49.297,8.72,53.498,18.034z"/>
	<g>
		<g>
			<path class="st3" d="M36.478,43.456H21.613c-3.079,0-5.585-2.447-5.585-5.456V22.693c0-3.009,2.505-5.457,5.585-5.457h14.865
				c3.078,0,5.583,2.448,5.583,5.457V38C42.061,41.009,39.556,43.456,36.478,43.456z M21.613,19.484
				c-1.84,0-3.337,1.439-3.337,3.209V38c0,1.77,1.497,3.208,3.337,3.208h14.865c1.838,0,3.336-1.438,3.336-3.208V22.693
				c0-1.77-1.498-3.209-3.336-3.209H21.613z"/>
		</g>
		<g>
			<path class="st3" d="M29.045,37.151c-3.752,0-6.805-3.053-6.805-6.806c0-3.752,3.053-6.804,6.805-6.804
				c3.753,0,6.805,3.052,6.805,6.804C35.85,34.098,32.798,37.151,29.045,37.151z M29.045,25.788c-2.514,0-4.557,2.045-4.557,4.557
				c0,2.514,2.043,4.558,4.557,4.558c2.514,0,4.558-2.044,4.558-4.558C33.603,27.833,31.559,25.788,29.045,25.788z"/>
		</g>
		<circle class="st3" cx="36.349" cy="23.199" r="1.592"/>
	</g>
</g>
</svg>